<?xml version="1.0" encoding="UTF-8"?>
<svg xmlns="http://www.w3.org/2000/svg" viewBox="-50 -50 100 100" width="100%" height="100%" preserveAspectRatio="xMidYMid meet" shape-rendering="geometricPrecision">
<g fill="none" stroke="black" stroke-width="1" stroke-linecap="round">
  <path d="M 0.00,-20.00 A 20,20 0 0 1 10.00,-17.32"/>
  <path d="M 15.00,-25.98 A 30,30 0 0 1 30.00,0.00"/>
  <path d="M 0.00,30.00 A 30,30 0 0 1 -15.00,25.98"/>
  <path d="M -10.00,17.32 A 20,20 0 0 1 -17.32,-10.00"/>
  <path d="M 10.00,0.00 A 10,10 0 0 1 5.00,8.66"/>
  <path d="M 10.00,17.32 A 20,20 0 0 1 0.00,20.00"/>
  <path d="M -5.00,-8.66 A 10,10 0 0 1 5.00,-8.66"/>
  <path d="M -15.00,-25.98 A 30,30 0 0 1 0.00,-30.00"/>
  <path d="M -25.98,15.00 A 30,30 0 0 1 -30.00,0.00"/>
  <path d="M -5.00,8.66 A 10,10 0 0 1 -10.00,0.00"/>
  <path d="M 25.98,15.00 A 30,30 0 0 1 15.00,25.98"/>
  <circle cx="0" cy="0" r="40"/>
  <line x1="5.00" y1="-8.66" x2="15.00" y2="-25.98"/>
  <line x1="20.00" y1="0.00" x2="40.00" y2="0.00"/>
  <line x1="-15.00" y1="25.98" x2="-20.00" y2="34.64"/>
  <line x1="-17.32" y1="-10.00" x2="-34.64" y2="-20.00"/>
  <line x1="5.00" y1="8.66" x2="10.00" y2="17.32"/>
  <line x1="0.00" y1="20.00" x2="0.00" y2="30.00"/>
  <line x1="0.00" y1="-30.00" x2="0.00" y2="-40.00"/>
  <line x1="-30.00" y1="0.00" x2="-40.00" y2="0.00"/>
  <line x1="17.32" y1="-10.00" x2="25.98" y2="-15.00"/>
  <line x1="-10.00" y1="0.00" x2="-20.00" y2="0.00"/>
  <line x1="-10.00" y1="-17.32" x2="-15.00" y2="-25.98"/>
  <line x1="17.32" y1="10.00" x2="25.98" y2="15.00"/>
  <line x1="15.00" y1="25.98" x2="20.00" y2="34.64"/>
</g>
</svg>
